<svg aria-hidden="true" style="position: absolute; width: 0; height: 0; overflow: hidden;" version="1.1" xmlns="http://www.w3.org/2000/svg" xmlns:xlink="http://www.w3.org/1999/xlink">
<defs>
<symbol id="icon-envelope" viewBox="0 0 28 28">
<path d="M26 23.5v-12c-0.328 0.375-0.688 0.719-1.078 1.031-2.234 1.719-4.484 3.469-6.656 5.281-1.172 0.984-2.625 2.188-4.25 2.188h-0.031c-1.625 0-3.078-1.203-4.25-2.188-2.172-1.813-4.422-3.563-6.656-5.281-0.391-0.313-0.75-0.656-1.078-1.031v12c0 0.266 0.234 0.5 0.5 0.5h23c0.266 0 0.5-0.234 0.5-0.5zM26 7.078c0-0.391 0.094-1.078-0.5-1.078h-23c-0.266 0-0.5 0.234-0.5 0.5 0 1.781 0.891 3.328 2.297 4.438 2.094 1.641 4.188 3.297 6.266 4.953 0.828 0.672 2.328 2.109 3.422 2.109h0.031c1.094 0 2.594-1.437 3.422-2.109 2.078-1.656 4.172-3.313 6.266-4.953 1.016-0.797 2.297-2.531 2.297-3.859zM28 6.5v17c0 1.375-1.125 2.5-2.5 2.5h-23c-1.375 0-2.5-1.125-2.5-2.5v-17c0-1.375 1.125-2.5 2.5-2.5h23c1.375 0 2.5 1.125 2.5 2.5z"></path>
</symbol>
<symbol id="icon-instagram" viewBox="0 0 24 28">
<path d="M16 14c0-2.203-1.797-4-4-4s-4 1.797-4 4 1.797 4 4 4 4-1.797 4-4zM18.156 14c0 3.406-2.75 6.156-6.156 6.156s-6.156-2.75-6.156-6.156 2.75-6.156 6.156-6.156 6.156 2.75 6.156 6.156zM19.844 7.594c0 0.797-0.641 1.437-1.437 1.437s-1.437-0.641-1.437-1.437 0.641-1.437 1.437-1.437 1.437 0.641 1.437 1.437zM12 4.156c-1.75 0-5.5-0.141-7.078 0.484-0.547 0.219-0.953 0.484-1.375 0.906s-0.688 0.828-0.906 1.375c-0.625 1.578-0.484 5.328-0.484 7.078s-0.141 5.5 0.484 7.078c0.219 0.547 0.484 0.953 0.906 1.375s0.828 0.688 1.375 0.906c1.578 0.625 5.328 0.484 7.078 0.484s5.5 0.141 7.078-0.484c0.547-0.219 0.953-0.484 1.375-0.906s0.688-0.828 0.906-1.375c0.625-1.578 0.484-5.328 0.484-7.078s0.141-5.5-0.484-7.078c-0.219-0.547-0.484-0.953-0.906-1.375s-0.828-0.688-1.375-0.906c-1.578-0.625-5.328-0.484-7.078-0.484zM24 14c0 1.656 0.016 3.297-0.078 4.953-0.094 1.922-0.531 3.625-1.937 5.031s-3.109 1.844-5.031 1.937c-1.656 0.094-3.297 0.078-4.953 0.078s-3.297 0.016-4.953-0.078c-1.922-0.094-3.625-0.531-5.031-1.937s-1.844-3.109-1.937-5.031c-0.094-1.656-0.078-3.297-0.078-4.953s-0.016-3.297 0.078-4.953c0.094-1.922 0.531-3.625 1.937-5.031s3.109-1.844 5.031-1.937c1.656-0.094 3.297-0.078 4.953-0.078s3.297-0.016 4.953 0.078c1.922 0.094 3.625 0.531 5.031 1.937s1.844 3.109 1.937 5.031c0.094 1.656 0.078 3.297 0.078 4.953z"></path>
</symbol>
<symbol id="icon-github-alt" viewBox="0 0 26 28">
<path d="M10 19c0 1.141-0.594 3-2 3s-2-1.859-2-3 0.594-3 2-3 2 1.859 2 3zM20 19c0 1.141-0.594 3-2 3s-2-1.859-2-3 0.594-3 2-3 2 1.859 2 3zM22.5 19c0-2.391-1.453-4.5-4-4.5-1.031 0-2.016 0.187-3.047 0.328-0.812 0.125-1.625 0.172-2.453 0.172s-1.641-0.047-2.453-0.172c-1.016-0.141-2.016-0.328-3.047-0.328-2.547 0-4 2.109-4 4.5 0 4.781 4.375 5.516 8.188 5.516h2.625c3.813 0 8.188-0.734 8.188-5.516zM26 16.25c0 1.734-0.172 3.578-0.953 5.172-2.063 4.172-7.734 4.578-11.797 4.578-4.125 0-10.141-0.359-12.281-4.578-0.797-1.578-0.969-3.437-0.969-5.172 0-2.281 0.625-4.438 2.125-6.188-0.281-0.859-0.422-1.766-0.422-2.656 0-1.172 0.266-2.344 0.797-3.406 2.469 0 4.047 1.078 5.922 2.547 1.578-0.375 3.203-0.547 4.828-0.547 1.469 0 2.953 0.156 4.375 0.5 1.859-1.453 3.437-2.5 5.875-2.5 0.531 1.062 0.797 2.234 0.797 3.406 0 0.891-0.141 1.781-0.422 2.625 1.5 1.766 2.125 3.938 2.125 6.219z"></path>
</symbol>
<symbol id="icon-twitter" viewBox="0 0 26 28">
<path d="M25.312 6.375c-0.688 1-1.547 1.891-2.531 2.609 0.016 0.219 0.016 0.438 0.016 0.656 0 6.672-5.078 14.359-14.359 14.359-2.859 0-5.516-0.828-7.75-2.266 0.406 0.047 0.797 0.063 1.219 0.063 2.359 0 4.531-0.797 6.266-2.156-2.219-0.047-4.078-1.5-4.719-3.5 0.313 0.047 0.625 0.078 0.953 0.078 0.453 0 0.906-0.063 1.328-0.172-2.312-0.469-4.047-2.5-4.047-4.953v-0.063c0.672 0.375 1.453 0.609 2.281 0.641-1.359-0.906-2.25-2.453-2.25-4.203 0-0.938 0.25-1.797 0.688-2.547 2.484 3.062 6.219 5.063 10.406 5.281-0.078-0.375-0.125-0.766-0.125-1.156 0-2.781 2.25-5.047 5.047-5.047 1.453 0 2.766 0.609 3.687 1.594 1.141-0.219 2.234-0.641 3.203-1.219-0.375 1.172-1.172 2.156-2.219 2.781 1.016-0.109 2-0.391 2.906-0.781z"></path>
</symbol>
<symbol id="icon-linkedin" viewBox="0 0 24 28">
<path d="M5.453 9.766v15.484h-5.156v-15.484h5.156zM5.781 4.984c0.016 1.484-1.109 2.672-2.906 2.672v0h-0.031c-1.734 0-2.844-1.188-2.844-2.672 0-1.516 1.156-2.672 2.906-2.672 1.766 0 2.859 1.156 2.875 2.672zM24 16.375v8.875h-5.141v-8.281c0-2.078-0.75-3.5-2.609-3.5-1.422 0-2.266 0.953-2.641 1.875-0.125 0.344-0.172 0.797-0.172 1.266v8.641h-5.141c0.063-14.031 0-15.484 0-15.484h5.141v2.25h-0.031c0.672-1.062 1.891-2.609 4.672-2.609 3.391 0 5.922 2.219 5.922 6.969z"></path>
</symbol>
<symbol id="icon-flow-branch" viewBox="0 0 20 20">
<path d="M16.4 4c0-1.326-1.074-2.4-2.4-2.4s-2.4 1.074-2.4 2.4c0 0.961 0.568 1.784 1.384 2.167-0.082 1.584-1.27 2.122-3.335 2.896-0.87 0.327-1.829 0.689-2.649 1.234v-4.121c0.825-0.38 1.4-1.209 1.4-2.176 0-1.326-1.074-2.4-2.4-2.4s-2.4 1.074-2.4 2.4c0 0.967 0.576 1.796 1.4 2.176v7.649c-0.825 0.379-1.4 1.208-1.4 2.175 0 1.326 1.074 2.4 2.4 2.4s2.4-1.075 2.4-2.4c0-0.961-0.568-1.784-1.384-2.167 0.082-1.583 1.271-2.122 3.335-2.896 2.030-0.762 4.541-1.711 4.64-4.756 0.829-0.378 1.409-1.21 1.409-2.181zM6 2.615c0.764 0 1.384 0.619 1.384 1.385 0 0.764-0.62 1.385-1.384 1.385s-1.384-0.621-1.384-1.385c0-0.766 0.619-1.385 1.384-1.385zM6 17.385c-0.766 0-1.385-0.621-1.385-1.385 0-0.766 0.619-1.385 1.385-1.385 0.764 0 1.384 0.619 1.384 1.385 0 0.764-0.62 1.385-1.384 1.385zM14 5.385c-0.766 0-1.385-0.621-1.385-1.385 0-0.766 0.619-1.385 1.385-1.385 0.764 0 1.384 0.619 1.384 1.385 0 0.764-0.62 1.385-1.384 1.385z"></path>
</symbol>
<symbol id="icon-code" viewBox="0 0 24 24">
<path d="M14.578 16.594l4.641-4.594-4.641-4.594 1.406-1.406 6 6-6 6zM9.422 16.594l-1.406 1.406-6-6 6-6 1.406 1.406-4.641 4.594z"></path>
</symbol>
<symbol id="icon-design" viewBox="0 0 24 24">
<path d="M16.219 11.531l1.594-1.594-3.75-3.75-1.594 1.594-4.125-4.172q-0.563-0.563-1.406-0.563t-1.406 0.563l-1.922 1.922q-0.563 0.563-0.563 1.406t0.563 1.406l4.125 4.125-4.734 4.781v3.75h3.75l4.781-4.781 4.125 4.172q0.469 0.469 1.008 0.539t1.031-0.094 0.773-0.445l1.922-1.922q0.563-0.563 0.563-1.406t-0.563-1.406zM9.188 11.063l-4.125-4.125 1.875-1.875 1.266 1.266-1.172 1.172 1.406 1.406 1.172-1.172 1.453 1.453zM17.063 18.938l-4.125-4.125 1.875-1.875 1.453 1.453-1.172 1.172 1.406 1.406 1.172-1.172 1.266 1.266zM20.719 7.031q0.281-0.281 0.281-0.703t-0.281-0.703l-2.344-2.344q-0.375-0.328-0.797-0.258t-0.609 0.258l-1.828 1.828 3.75 3.75z"></path>
</symbol>
<symbol id="icon-responsive" viewBox="0 0 24 24">
<path d="M21.984 17.016v-7.031h-3.984v7.031h3.984zM23.016 8.016q0.422 0 0.703 0.281t0.281 0.703v9.984q0 0.422-0.281 0.727t-0.703 0.305h-6q-0.422 0-0.727-0.305t-0.305-0.727v-9.984q0-0.422 0.305-0.703t0.727-0.281h6zM3.984 6v11.016h10.031v3h-14.016v-3h2.016v-11.016q0-0.797 0.586-1.406t1.383-0.609h18v2.016h-18z"></path>
</symbol>
<symbol id="icon-slack" viewBox="0 0 32 32">
<path fill="#4a154b" style="fill: var(--color1, #4a154b)" d="M6.723 20.22c-0.004 1.855-1.505 3.358-3.359 3.364h-0.001c-1.856-0.005-3.359-1.508-3.363-3.364v-0c0.005-1.854 1.508-3.356 3.362-3.36h3.36zM8.417 20.22c0.005-1.854 1.507-3.355 3.361-3.36h0c1.854 0.005 3.356 1.506 3.361 3.36v8.418c-0.005 1.855-1.507 3.357-3.361 3.363h-0.001c-1.855-0.005-3.357-1.508-3.361-3.362v-0zM11.779 6.723c-1.854-0.005-3.355-1.506-3.361-3.359v-0.001c0.005-1.855 1.507-3.357 3.361-3.363h0.001c1.855 0.005 3.357 1.508 3.361 3.362v3.36zM11.779 8.417c1.854 0.005 3.356 1.507 3.361 3.361v0.001c-0.005 1.854-1.507 3.356-3.361 3.361h-8.416c-1.855-0.005-3.357-1.507-3.363-3.361v-0.001c0.005-1.855 1.508-3.357 3.362-3.361h0zM25.275 11.779c0.005-1.855 1.508-3.357 3.362-3.361h0c1.855 0.005 3.357 1.507 3.363 3.361v0.001c-0.005 1.855-1.508 3.357-3.362 3.361h-3.363zM23.584 11.779c-0.005 1.855-1.509 3.358-3.364 3.361h-0c-1.854-0.005-3.355-1.507-3.36-3.361v-8.416c0.004-1.855 1.506-3.357 3.36-3.363h0c1.856 0.004 3.359 1.507 3.364 3.362v0zM20.22 25.275c1.856 0.004 3.359 1.507 3.364 3.362v0c-0.005 1.856-1.508 3.359-3.364 3.363h-0c-1.854-0.005-3.356-1.508-3.36-3.362v-3.363zM20.22 23.584c-1.855-0.005-3.357-1.509-3.36-3.364v-0c0.005-1.854 1.506-3.355 3.36-3.36h8.418c1.855 0.004 3.357 1.506 3.363 3.36v0c-0.004 1.856-1.507 3.359-3.362 3.364h-0z"></path>
</symbol>
<symbol id="icon-photoshop" viewBox="0 0 32 32">
<path fill="#00c8ff" style="fill: var(--color2, #00c8ff)" d="M0 0.4v31.2h32v-31.2zM1.333 1.733h29.333v28.533h-29.333zM7.733 7.707c0-0.089 0.187-0.155 0.299-0.155 0.859-0.044 2.117-0.067 3.437-0.067 3.696 0 5.133 2.027 5.133 4.621 0 3.387-2.456 4.84-5.469 4.84-0.507 0-0.68-0.023-1.033-0.023v5.123c0 0.111-0.044 0.155-0.153 0.155h-2.059c-0.111 0-0.153-0.040-0.153-0.151zM10.1 14.789c0.307 0.021 0.549 0.021 1.080 0.021 1.56 0 3.027-0.549 3.027-2.661 0-1.693-1.048-2.552-2.829-2.552-0.528 0-1.033 0.021-1.276 0.044zM21.576 13.205c-1.056 0-1.408 0.528-1.408 0.968 0 0.484 0.24 0.813 1.649 1.54 2.091 1.013 2.749 1.98 2.749 3.409 0 2.133-1.627 3.28-3.827 3.28-1.168 0-2.16-0.244-2.733-0.573-0.087-0.044-0.107-0.109-0.107-0.22v-1.956c0-0.133 0.064-0.177 0.152-0.112 0.832 0.551 1.803 0.792 2.683 0.792 1.056 0 1.496-0.44 1.496-1.035 0-0.484-0.307-0.903-1.649-1.607-1.893-0.907-2.685-1.827-2.685-3.369 0-1.716 1.341-3.147 3.673-3.147 1.147 0 1.952 0.176 2.392 0.373 0.109 0.067 0.133 0.176 0.133 0.264v1.827c0 0.111-0.067 0.177-0.2 0.133-0.592-0.352-1.467-0.573-2.319-0.568z"></path>
</symbol>
<symbol id="icon-vscode" viewBox="0 0 32 32">
<path fill="#007acc" style="fill: var(--color3, #007acc)" d="M30.867 3.449l-6.587-3.169c-0.253-0.124-0.55-0.197-0.864-0.197-0.55 0-1.049 0.223-1.409 0.584v0l-12.613 11.507-5.493-4.171c-0.221-0.169-0.501-0.271-0.805-0.271-0.346 0-0.661 0.132-0.897 0.348l-1.762 1.602c-0.269 0.245-0.436 0.596-0.436 0.987s0.167 0.741 0.434 0.984l0.001 0.001 4.764 4.347-4.764 4.347c-0.268 0.245-0.435 0.596-0.435 0.985s0.168 0.742 0.435 0.986l0.001 0.001 1.764 1.601c0.236 0.215 0.551 0.347 0.896 0.347 0.304 0 0.584-0.102 0.808-0.273l-0.003 0.002 5.493-4.171 12.613 11.507c0.36 0.361 0.858 0.584 1.408 0.584 0.314 0 0.611-0.073 0.876-0.203l-0.012 0.005 6.589-3.169c0.675-0.331 1.131-1.013 1.131-1.801 0-0.001 0-0.001 0-0.002v0-21.495c0-0 0-0 0-0 0-0.789-0.457-1.472-1.122-1.797l-0.012-0.005zM24.005 23.264l-9.571-7.264 9.571-7.264z"></path>
</symbol>
<symbol id="icon-react" viewBox="0 0 32 32">
<path fill="#61dafb" style="fill: var(--color4, #61dafb)" d="M16 13.148c-1.575 0-2.852 1.277-2.852 2.852s1.277 2.852 2.852 2.852v0c1.575 0 2.852-1.277 2.852-2.852s-1.277-2.852-2.852-2.852v0zM8.011 21.673l-0.629-0.16c-4.691-1.185-7.381-3.197-7.381-5.519s2.691-4.333 7.381-5.519l0.629-0.159 0.177 0.624c0.545 1.86 1.163 3.443 1.899 4.957l-0.082-0.186 0.135 0.284-0.135 0.284c-0.656 1.329-1.275 2.912-1.761 4.551l-0.056 0.22zM7.089 11.933c-3.565 1.001-5.753 2.533-5.753 4.061 0 1.527 2.188 3.059 5.753 4.061 0.512-1.62 1.046-2.965 1.662-4.263l-0.086 0.202c-0.531-1.098-1.066-2.443-1.511-3.828l-0.065-0.234zM23.989 21.673l-0.177-0.625c-0.544-1.859-1.162-3.441-1.9-4.954l0.081 0.184-0.135-0.284 0.135-0.284c0.656-1.329 1.275-2.911 1.762-4.55l0.056-0.221 0.177-0.624 0.631 0.159c4.689 1.185 7.38 3.197 7.38 5.52s-2.691 4.333-7.38 5.519zM23.335 15.995c0.64 1.385 1.169 2.747 1.576 4.061 3.567-1.003 5.753-2.535 5.753-4.061 0-1.528-2.188-3.059-5.753-4.061-0.511 1.619-1.045 2.963-1.662 4.262l0.086-0.2zM7.080 11.927l-0.177-0.623c-1.319-4.648-0.919-7.979 1.097-9.141 1.977-1.141 5.152 0.207 8.479 3.621l0.453 0.465-0.453 0.465c-1.146 1.19-2.207 2.482-3.162 3.853l-0.068 0.103-0.18 0.257-0.313 0.027c-1.875 0.151-3.596 0.439-5.264 0.86l0.218-0.047zM9.608 3.087c-0.357 0-0.673 0.077-0.94 0.231-1.325 0.764-1.56 3.42-0.647 7.004 1.21-0.285 2.681-0.521 4.18-0.658l0.131-0.010c0.894-1.264 1.792-2.37 2.756-3.414l-0.020 0.022c-2.080-2.025-4.049-3.175-5.46-3.175zM22.393 30.236c-0.001 0-0.001 0 0 0-1.9 0-4.34-1.431-6.872-4.031l-0.453-0.465 0.453-0.465c1.146-1.19 2.206-2.482 3.16-3.854l0.068-0.103 0.18-0.257 0.312-0.027c1.875-0.15 3.597-0.438 5.267-0.858l-0.218 0.046 0.629-0.159 0.179 0.624c1.316 4.645 0.917 7.977-1.099 9.139-0.449 0.259-0.988 0.411-1.562 0.411-0.016 0-0.031-0-0.047-0l0.002 0zM16.932 25.728c2.080 2.025 4.049 3.175 5.46 3.175h0.001c0.356 0 0.673-0.077 0.939-0.231 1.325-0.764 1.561-3.421 0.647-7.005-1.212 0.286-2.682 0.522-4.182 0.658l-0.13 0.010c-0.893 1.265-1.791 2.371-2.755 3.416l0.020-0.022zM24.92 11.927l-0.629-0.159c-1.453-0.376-3.175-0.664-4.939-0.806l-0.111-0.007-0.312-0.027-0.18-0.257c-1.021-1.474-2.082-2.766-3.237-3.966l0.009 0.010-0.453-0.465 0.453-0.465c3.325-3.413 6.499-4.761 8.479-3.621 2.016 1.163 2.416 4.493 1.099 9.14zM19.667 9.653c1.523 0.139 2.969 0.364 4.312 0.668 0.915-3.584 0.679-6.24-0.647-7.004-1.317-0.761-3.793 0.405-6.4 2.944 0.943 1.022 1.841 2.128 2.666 3.289l0.069 0.103zM9.608 30.236c-0.014 0-0.030 0-0.046 0-0.574 0-1.113-0.152-1.577-0.419l0.015 0.008c-2.016-1.161-2.416-4.492-1.097-9.139l0.176-0.624 0.629 0.159c1.54 0.388 3.239 0.661 5.047 0.812l0.313 0.027 0.179 0.257c1.022 1.475 2.083 2.767 3.239 3.967l-0.010-0.010 0.453 0.465-0.453 0.465c-2.531 2.6-4.971 4.031-6.868 4.031zM8.021 21.667c-0.915 3.584-0.679 6.241 0.647 7.005 1.316 0.751 3.791-0.407 6.4-2.944-0.943-1.022-1.841-2.129-2.667-3.29l-0.069-0.103c-1.629-0.146-3.099-0.382-4.534-0.711l0.224 0.043zM16 22.504c-1.097 0-2.225-0.048-3.355-0.141l-0.313-0.027-0.18-0.257c-0.544-0.768-1.139-1.691-1.697-2.639l-0.103-0.19c-0.452-0.758-0.971-1.732-1.45-2.728l-0.105-0.243-0.133-0.284 0.133-0.284c0.584-1.239 1.102-2.212 1.658-3.161l-0.103 0.191c0.552-0.955 1.159-1.907 1.8-2.829l0.18-0.257 0.313-0.027c1.005-0.090 2.174-0.142 3.355-0.142s2.35 0.052 3.505 0.153l-0.15-0.011 0.312 0.027 0.179 0.257c1.177 1.666 2.294 3.567 3.252 5.56l0.104 0.24 0.135 0.284-0.135 0.284c-1.058 2.232-2.176 4.133-3.439 5.925l0.083-0.125-0.179 0.257-0.312 0.027c-1.129 0.093-2.259 0.141-3.356 0.141zM13.071 21.059c1.973 0.148 3.885 0.148 5.86 0 1.004-1.445 1.978-3.104 2.827-4.836l0.101-0.228c-0.947-1.958-1.922-3.617-3.012-5.19l0.083 0.126c-0.877-0.071-1.898-0.111-2.929-0.111s-2.052 0.040-3.063 0.119l0.134-0.008c-1.008 1.447-1.983 3.106-2.83 4.84l-0.099 0.224c0.951 1.96 1.926 3.619 3.014 5.193l-0.085-0.13z"></path>
</symbol>
<symbol id="icon-sass" viewBox="0 0 32 32">
<path fill="#c69" style="fill: var(--color5, #c69)" d="M16 0c8.836 0 16 7.164 16 16s-7.164 16-16 16-16-7.164-16-16 7.164-16 16-16zM12.82 21.331c0.233 0.86 0.208 1.664-0.032 2.389l-0.087 0.24c-0.032 0.081-0.069 0.16-0.104 0.235-0.187 0.387-0.435 0.747-0.74 1.080-0.931 1.012-2.229 1.396-2.787 1.073-0.6-0.349-0.301-1.78 0.779-2.92 1.161-1.224 2.827-2.012 2.827-2.012v-0.004zM26.035 6.849c-0.723-2.844-5.436-3.779-9.896-2.193-2.652 0.943-5.525 2.424-7.591 4.356-2.457 2.295-2.848 4.295-2.687 5.131 0.569 2.948 4.609 4.876 6.271 6.307v0.008c-0.489 0.24-4.075 2.039-4.915 3.9-0.9 1.96 0.14 3.361 0.82 3.54 2.1 0.581 4.26-0.48 5.42-2.199 1.12-1.681 1.021-3.841 0.539-4.901 0.661-0.18 1.44-0.26 2.44-0.139 2.801 0.32 3.361 2.080 3.24 2.8-0.12 0.719-0.697 1.139-0.899 1.259-0.2 0.121-0.26 0.16-0.241 0.241 0.020 0.12 0.121 0.12 0.28 0.1 0.22-0.040 1.461-0.6 1.521-1.961 0.060-1.72-1.581-3.639-4.5-3.6-1.2 0.021-1.961 0.121-2.5 0.341-0.040-0.060-0.081-0.1-0.14-0.14-1.8-1.94-5.14-3.3-5-5.88 0.040-0.94 0.38-3.419 6.4-6.419 4.94-2.461 8.881-1.78 9.561-0.28 0.977 2.139-2.101 6.12-7.241 6.699-1.96 0.22-2.98-0.539-3.241-0.82-0.279-0.3-0.319-0.32-0.419-0.259-0.16 0.080-0.060 0.34 0 0.5 0.16 0.4 0.78 1.1 1.861 1.46 0.939 0.3 3.24 0.479 6-0.6 3.099-1.199 5.519-4.54 4.819-7.34z"></path>
</symbol>
<symbol id="icon-css" viewBox="0 0 32 32">
<path fill="#1572b6" style="fill: var(--color6, #1572b6)" d="M2 0h28l-2.547 28.751-11.484 3.249-11.42-3.251zM24.787 5.884l-17.573-0.004 0.284 3.496 13.5 0.003-0.34 3.621h-8.853l0.32 3.431h8.243l-0.488 4.697-3.88 1.072-3.941-1.080-0.251-2.813h-3.48l0.387 5.14 7.287 2.271 7.164-2.040z"></path>
</symbol>
<symbol id="icon-html" viewBox="0 0 32 32">
<path fill="#e34f26" style="fill: var(--color7, #e34f26)" d="M2 0h28l-2.547 28.751-11.484 3.249-11.419-3.251zM11.375 13l-0.309-3.624 13.412 0.004 0.307-3.496-17.568-0.004 0.931 10.68h12.168l-0.435 4.568-3.88 1.072-3.94-1.080-0.251-2.813h-3.479l0.44 5.561 7.229 1.933 7.172-1.924 0.992-10.876z"></path>
</symbol>
<symbol id="icon-javascript" viewBox="0 0 32 32">
<path fill="#f7df1e" style="fill: var(--color8, #f7df1e)" d="M0 0h32v32h-32zM29.379 24.368c-0.233-1.46-1.184-2.687-4.004-3.831-0.981-0.46-2.072-0.78-2.396-1.52-0.121-0.44-0.14-0.68-0.061-0.94 0.2-0.861 1.22-1.12 2.020-0.88 0.52 0.16 1 0.56 1.301 1.2 1.379-0.901 1.379-0.901 2.34-1.5-0.36-0.56-0.539-0.801-0.781-1.040-0.84-0.94-1.959-1.42-3.779-1.379l-0.94 0.119c-0.901 0.22-1.76 0.7-2.28 1.34-1.52 1.721-1.081 4.721 0.759 5.961 1.82 1.36 4.481 1.659 4.821 2.94 0.32 1.56-1.16 2.060-2.621 1.88-1.081-0.24-1.68-0.781-2.34-1.781l-2.44 1.401c0.28 0.64 0.6 0.919 1.080 1.479 2.32 2.341 8.12 2.221 9.161-1.339 0.039-0.12 0.32-0.94 0.099-2.2zM17.401 14.708h-2.997c0 2.584-0.012 5.152-0.012 7.74 0 1.643 0.084 3.151-0.184 3.615-0.44 0.919-1.573 0.801-2.088 0.64-0.528-0.261-0.796-0.621-1.107-1.14-0.084-0.14-0.147-0.261-0.169-0.261l-2.433 1.5c0.407 0.84 1 1.563 1.765 2.023 1.14 0.68 2.672 0.9 4.276 0.54 1.044-0.301 1.944-0.921 2.415-1.881 0.68-1.24 0.536-2.76 0.529-4.461 0.016-2.739 0-5.479 0-8.239z"></path>
</symbol>
<symbol id="icon-github" viewBox="0 0 32 32">
<path d="M16 0.395c-8.836 0-16 7.163-16 16 0 7.069 4.585 13.067 10.942 15.182 0.8 0.148 1.094-0.347 1.094-0.77 0-0.381-0.015-1.642-0.022-2.979-4.452 0.968-5.391-1.888-5.391-1.888-0.728-1.849-1.776-2.341-1.776-2.341-1.452-0.993 0.11-0.973 0.11-0.973 1.606 0.113 2.452 1.649 2.452 1.649 1.427 2.446 3.743 1.739 4.656 1.33 0.143-1.034 0.558-1.74 1.016-2.14-3.554-0.404-7.29-1.777-7.29-7.907 0-1.747 0.625-3.174 1.649-4.295-0.166-0.403-0.714-2.030 0.155-4.234 0 0 1.344-0.43 4.401 1.64 1.276-0.355 2.645-0.532 4.005-0.539 1.359 0.006 2.729 0.184 4.008 0.539 3.054-2.070 4.395-1.64 4.395-1.64 0.871 2.204 0.323 3.831 0.157 4.234 1.026 1.12 1.647 2.548 1.647 4.295 0 6.145-3.743 7.498-7.306 7.895 0.574 0.497 1.085 1.47 1.085 2.963 0 2.141-0.019 3.864-0.019 4.391 0 0.426 0.288 0.925 1.099 0.768 6.354-2.118 10.933-8.113 10.933-15.18 0-8.837-7.164-16-16-16z"></path>
</symbol>
<symbol id="icon-git" viewBox="0 0 32 32">
<path d="M31.397 14.575l-13.972-13.971c-0.804-0.805-2.109-0.805-2.915 0l-3.246 3.246 2.443 2.443c0.392-0.187 0.83-0.293 1.293-0.293 1.657 0 3 1.343 3 3 0 0.463-0.105 0.902-0.293 1.293l3.999 3.999c0.392-0.187 0.83-0.293 1.293-0.293 1.657 0 3 1.343 3 3s-1.343 3-3 3-3-1.343-3-3c0-0.463 0.105-0.902 0.293-1.293l-3.999-3.999c-0.095 0.046-0.193 0.086-0.293 0.121v8.343c1.165 0.412 2 1.522 2 2.829 0 1.657-1.343 3-3 3s-3-1.343-3-3c0-1.306 0.835-2.417 2-2.829v-8.343c-1.165-0.412-2-1.522-2-2.829 0-0.463 0.105-0.902 0.293-1.293l-2.443-2.443-9.247 9.246c-0.805 0.806-0.805 2.11 0 2.915l13.973 13.971c0.804 0.805 2.109 0.805 2.915 0l13.906-13.906c0.805-0.805 0.805-2.111-0-2.915z"></path>
</symbol>
</defs>
</svg>
