<svg aria-hidden="true" style="position: absolute; width: 0; height: 0; overflow: hidden;" version="1.1" xmlns="http://www.w3.org/2000/svg" xmlns:xlink="http://www.w3.org/1999/xlink">
<defs>
<symbol id="icon-email" viewBox="0 0 24 24">
<path d="M15 12c0 0.829-0.335 1.577-0.879 2.121s-1.292 0.879-2.121 0.879-1.577-0.335-2.121-0.879-0.879-1.292-0.879-2.121 0.335-1.577 0.879-2.121 1.292-0.879 2.121-0.879 1.577 0.335 2.121 0.879 0.879 1.292 0.879 2.121zM15.74 15.318c0.13 0.182 0.274 0.353 0.431 0.51 0.723 0.723 1.725 1.172 2.829 1.172s2.106-0.449 2.828-1.172 1.172-1.724 1.172-2.828v-1c0-3.037-1.233-5.789-3.222-7.778s-4.741-3.222-7.779-3.221-5.788 1.232-7.778 3.222-3.221 4.741-3.221 7.778 1.233 5.789 3.222 7.778 4.741 3.222 7.778 3.221c2.525 0 4.855-0.852 6.69-2.269 0.437-0.337 0.518-0.965 0.18-1.403s-0.965-0.518-1.403-0.18c-1.487 1.148-3.377 1.844-5.435 1.852-2.54-0.009-4.776-1.014-6.398-2.636-1.627-1.629-2.634-3.877-2.634-6.363s1.006-4.734 2.636-6.364 3.878-2.636 6.364-2.636 4.734 1.006 6.364 2.636 2.636 3.878 2.636 6.363v1c0 0.553-0.223 1.051-0.586 1.414s-0.861 0.586-1.414 0.586-1.051-0.223-1.414-0.586-0.586-0.861-0.586-1.414v-5c0-0.552-0.448-1-1-1s-1 0.448-1 1c-0.835-0.627-1.875-1-3-1-1.38 0-2.632 0.561-3.536 1.464s-1.464 2.156-1.464 3.536 0.561 2.632 1.464 3.536 2.156 1.464 3.536 1.464 2.632-0.561 3.536-1.464c0.070-0.070 0.139-0.143 0.205-0.217z"></path>
</symbol>
<symbol id="icon-github" viewBox="0 0 24 24">
<path d="M8.713 18.042c-1.268 0.38-2.060 0.335-2.583 0.17-0.231-0.073-0.431-0.176-0.614-0.302-0.411-0.284-0.727-0.675-1.119-1.172-0.356-0.451-0.85-1.107-1.551-1.476-0.185-0.098-0.386-0.177-0.604-0.232-0.536-0.134-1.079 0.192-1.213 0.728s0.192 1.079 0.728 1.213c0.074 0.023 0.155 0.060 0.155 0.060 0.252 0.133 0.487 0.404 0.914 0.946 0.366 0.464 0.856 1.098 1.553 1.579 0.332 0.229 0.711 0.426 1.149 0.564 1.015 0.321 2.236 0.296 3.76-0.162 0.529-0.159 0.829-0.716 0.67-1.245s-0.716-0.829-1.245-0.67zM17 22v-3.792c0.052-0.684-0.056-1.343-0.292-1.942 0.777-0.171 1.563-0.427 2.297-0.823 2.083-1.124 3.496-3.242 3.496-6.923 0-1.503-0.516-2.887-1.379-3.981 0.355-1.345 0.226-2.726-0.293-3.933-0.122-0.283-0.359-0.482-0.634-0.564-0.357-0.106-1.732-0.309-4.373 1.362-2.273-0.541-4.557-0.509-6.646-0.002-2.639-1.669-4.013-1.466-4.37-1.36-0.296 0.088-0.521 0.3-0.635 0.565-0.554 1.292-0.624 2.672-0.292 3.932-0.93 1.178-1.387 2.601-1.379 4.017 0 3.622 1.389 5.723 3.441 6.859 0.752 0.416 1.56 0.685 2.357 0.867-0.185 0.468-0.286 0.961-0.304 1.456-0.005 0.141-0.003 0.283 0.005 0.424l0.001 3.838c0 0.552 0.448 1 1 1s1-0.448 1-1v-3.87c0-0.021-0.001-0.045-0.002-0.069-0.006-0.084-0.007-0.168-0.004-0.252 0.020-0.568 0.241-1.126 0.665-1.564 0.145-0.149 0.246-0.347 0.274-0.572 0.068-0.548-0.321-1.048-0.869-1.116-0.34-0.042-0.677-0.094-1.006-0.159-0.79-0.156-1.518-0.385-2.147-0.733-1.305-0.723-2.391-2.071-2.41-5.042 0.013-1.241 0.419-2.319 1.224-3.165 0.257-0.273 0.35-0.671 0.212-1.040-0.28-0.748-0.341-1.58-0.14-2.392 0.491 0.107 1.354 0.416 2.647 1.282 0.235 0.157 0.533 0.214 0.825 0.133 1.997-0.557 4.242-0.602 6.47 0.002 0.271 0.073 0.569 0.033 0.818-0.135 1.293-0.866 2.156-1.175 2.647-1.282 0.189 0.766 0.157 1.595-0.141 2.392-0.129 0.352-0.058 0.755 0.213 1.040 0.758 0.795 1.224 1.872 1.224 3.060 0 3.075-1.114 4.445-2.445 5.163-0.623 0.336-1.343 0.555-2.123 0.7-0.322 0.060-0.651 0.106-0.983 0.143-0.21 0.023-0.418 0.114-0.584 0.275-0.397 0.384-0.408 1.017-0.024 1.414 0.067 0.070 0.13 0.143 0.188 0.22 0.34 0.449 0.521 1.015 0.474 1.617 0 0.024-0.001 0.051-0.003 0.078v3.872c0 0.552 0.448 1 1 1s1-0.448 1-1z"></path>
</symbol>
<symbol id="icon-linkedin" viewBox="0 0 24 24">
<path d="M16 7c-1.933 0-3.684 0.785-4.95 2.050s-2.050 3.017-2.050 4.95v7c0 0.552 0.448 1 1 1h4c0.552 0 1-0.448 1-1v-7c0-0.276 0.111-0.525 0.293-0.707s0.431-0.293 0.707-0.293 0.525 0.111 0.707 0.293 0.293 0.431 0.293 0.707v7c0 0.552 0.448 1 1 1h4c0.552 0 1-0.448 1-1v-7c0-1.933-0.785-3.684-2.050-4.95s-3.017-2.050-4.95-2.050zM16 9c1.381 0 2.63 0.559 3.536 1.464s1.464 2.155 1.464 3.536v6h-2v-6c0-0.828-0.337-1.58-0.879-2.121s-1.293-0.879-2.121-0.879-1.58 0.337-2.121 0.879-0.879 1.293-0.879 2.121v6h-2v-6c0-1.381 0.559-2.63 1.464-3.536s2.155-1.464 3.536-1.464zM2 8c-0.552 0-1 0.448-1 1v12c0 0.552 0.448 1 1 1h4c0.552 0 1-0.448 1-1v-12c0-0.552-0.448-1-1-1zM3 10h2v10h-2zM7 4c0-0.828-0.337-1.58-0.879-2.121s-1.293-0.879-2.121-0.879-1.58 0.337-2.121 0.879-0.879 1.293-0.879 2.121 0.337 1.58 0.879 2.121 1.293 0.879 2.121 0.879 1.58-0.337 2.121-0.879 0.879-1.293 0.879-2.121zM5 4c0 0.276-0.111 0.525-0.293 0.707s-0.431 0.293-0.707 0.293-0.525-0.111-0.707-0.293-0.293-0.431-0.293-0.707 0.111-0.525 0.293-0.707 0.431-0.293 0.707-0.293 0.525 0.111 0.707 0.293 0.293 0.431 0.293 0.707z"></path>
</symbol>
<symbol id="icon-slack" viewBox="0 0 24 24">
<path d="M14.5 11c0.69 0 1.316-0.28 1.768-0.732s0.732-1.078 0.732-1.768v-5c0-0.69-0.28-1.316-0.732-1.768s-1.078-0.732-1.768-0.732-1.316 0.28-1.768 0.732-0.732 1.078-0.732 1.768v5c0 0.69 0.28 1.316 0.732 1.768s1.078 0.732 1.768 0.732zM14.5 9c-0.14 0-0.264-0.055-0.354-0.146s-0.146-0.214-0.146-0.354v-5c0-0.14 0.055-0.264 0.146-0.354s0.214-0.146 0.354-0.146 0.264 0.055 0.354 0.146 0.146 0.214 0.146 0.354v5c0 0.14-0.055 0.264-0.146 0.354s-0.214 0.146-0.354 0.146zM20.5 11c0.69 0 1.316-0.28 1.768-0.732s0.732-1.078 0.732-1.768-0.28-1.316-0.732-1.768-1.078-0.732-1.768-0.732-1.316 0.28-1.768 0.732-0.732 1.078-0.732 1.768v1.5c0 0.552 0.448 1 1 1zM20.5 9h-0.5v-0.5c0-0.14 0.055-0.264 0.146-0.354s0.214-0.146 0.354-0.146 0.264 0.055 0.354 0.146 0.146 0.214 0.146 0.354-0.055 0.264-0.146 0.354-0.214 0.146-0.354 0.146zM9.5 13c-0.69 0-1.316 0.28-1.768 0.732s-0.732 1.078-0.732 1.768v5c0 0.69 0.28 1.316 0.732 1.768s1.078 0.732 1.768 0.732 1.316-0.28 1.768-0.732 0.732-1.078 0.732-1.768v-5c0-0.69-0.28-1.316-0.732-1.768s-1.078-0.732-1.768-0.732zM9.5 15c0.14 0 0.264 0.055 0.354 0.146s0.146 0.214 0.146 0.354v5c0 0.14-0.055 0.264-0.146 0.354s-0.214 0.146-0.354 0.146-0.264-0.055-0.354-0.146-0.146-0.214-0.146-0.354v-5c0-0.14 0.055-0.264 0.146-0.354s0.214-0.146 0.354-0.146zM3.5 13c-0.69 0-1.316 0.28-1.768 0.732s-0.732 1.078-0.732 1.768 0.28 1.316 0.732 1.768 1.078 0.732 1.768 0.732 1.316-0.28 1.768-0.732 0.732-1.078 0.732-1.768v-1.5c0-0.552-0.448-1-1-1zM3.5 15h0.5v0.5c0 0.14-0.055 0.264-0.146 0.354s-0.214 0.146-0.354 0.146-0.264-0.055-0.354-0.146-0.146-0.214-0.146-0.354 0.055-0.264 0.146-0.354 0.214-0.146 0.354-0.146zM13 14.5c0 0.69 0.28 1.316 0.732 1.768s1.078 0.732 1.768 0.732h5c0.69 0 1.316-0.28 1.768-0.732s0.732-1.078 0.732-1.768-0.28-1.316-0.732-1.768-1.078-0.732-1.768-0.732h-5c-0.69 0-1.316 0.28-1.768 0.732s-0.732 1.078-0.732 1.768zM15 14.5c0-0.14 0.055-0.264 0.146-0.354s0.214-0.146 0.354-0.146h5c0.14 0 0.264 0.055 0.354 0.146s0.146 0.214 0.146 0.354-0.055 0.264-0.146 0.354-0.214 0.146-0.354 0.146h-5c-0.14 0-0.264-0.055-0.354-0.146s-0.146-0.214-0.146-0.354zM15.5 20c0.14 0 0.264 0.055 0.354 0.146s0.146 0.214 0.146 0.354-0.055 0.264-0.146 0.354-0.214 0.146-0.354 0.146-0.264-0.055-0.354-0.146-0.146-0.214-0.146-0.354v-0.5zM15.5 18h-1.5c-0.552 0-1 0.448-1 1v1.5c0 0.69 0.28 1.316 0.732 1.768s1.078 0.732 1.768 0.732 1.316-0.28 1.768-0.732 0.732-1.078 0.732-1.768-0.28-1.316-0.732-1.768-1.078-0.732-1.768-0.732zM9 9.5c0 0.14-0.055 0.264-0.146 0.354s-0.214 0.146-0.354 0.146h-5c-0.14 0-0.264-0.055-0.354-0.146s-0.146-0.214-0.146-0.354 0.055-0.264 0.146-0.354 0.214-0.146 0.354-0.146h5c0.14 0 0.264 0.055 0.354 0.146s0.146 0.214 0.146 0.354zM11 9.5c0-0.69-0.28-1.316-0.732-1.768s-1.078-0.732-1.768-0.732h-5c-0.69 0-1.316 0.28-1.768 0.732s-0.732 1.078-0.732 1.768 0.28 1.316 0.732 1.768 1.078 0.732 1.768 0.732h5c0.69 0 1.316-0.28 1.768-0.732s0.732-1.078 0.732-1.768zM8.5 4c-0.14 0-0.264-0.055-0.354-0.146s-0.146-0.214-0.146-0.354 0.055-0.264 0.146-0.354 0.214-0.146 0.354-0.146 0.264 0.055 0.354 0.146 0.146 0.214 0.146 0.354v0.5zM8.5 6h1.5c0.552 0 1-0.448 1-1v-1.5c0-0.69-0.28-1.316-0.732-1.768s-1.078-0.732-1.768-0.732-1.316 0.28-1.768 0.732-0.732 1.078-0.732 1.768 0.28 1.316 0.732 1.768 1.078 0.732 1.768 0.732z"></path>
</symbol>
<symbol id="icon-twitter" viewBox="0 0 24 24">
<path d="M20.833 5.262c-0.186 0.242-0.391 0.475-0.616 0.696-0.233 0.232-0.347 0.567-0.278 0.908 0.037 0.182 0.060 0.404 0.061 0.634 0 5.256-2.429 8.971-5.81 10.898-2.647 1.509-5.938 1.955-9.222 1.12 1.245-0.361 2.46-0.921 3.593-1.69 0.147-0.099 0.273-0.243 0.352-0.421 0.224-0.505-0.003-1.096-0.508-1.32-2.774-1.233-4.13-2.931-4.769-4.593-0.417-1.084-0.546-2.198-0.52-3.227 0.021-0.811 0.138-1.56 0.278-2.182 0.394 0.343 0.803 0.706 1.235 1.038 2.051 1.577 4.624 2.479 7.395 2.407 0.543-0.015 0.976-0.457 0.976-1v-1.011c-0.002-0.179 0.009-0.357 0.034-0.533 0.113-0.806 0.504-1.569 1.162-2.141 0.725-0.631 1.636-0.908 2.526-0.846s1.753 0.463 2.384 1.188c0.252 0.286 0.649 0.416 1.033 0.304 0.231-0.067 0.463-0.143 0.695-0.228zM22.424 2.183c-0.74 0.522-1.523 0.926-2.287 1.205-0.931-0.836-2.091-1.302-3.276-1.385-1.398-0.097-2.836 0.339-3.977 1.332-1.036 0.901-1.652 2.108-1.83 3.372-0.037 0.265-0.055 0.532-0.054 0.8-1.922-0.142-3.693-0.85-5.15-1.97-0.775-0.596-1.462-1.309-2.034-2.116-0.32-0.45-0.944-0.557-1.394-0.237-0.154 0.109-0.267 0.253-0.335 0.409 0 0-0.132 0.299-0.285 0.76-0.112 0.337-0.241 0.775-0.357 1.29-0.163 0.722-0.302 1.602-0.326 2.571-0.031 1.227 0.12 2.612 0.652 3.996 0.683 1.775 1.966 3.478 4.147 4.823-1.569 0.726-3.245 1.039-4.873 0.967-0.552-0.024-1.019 0.403-1.043 0.955-0.017 0.389 0.19 0.736 0.513 0.918 4.905 2.725 10.426 2.678 14.666 0.261 4.040-2.301 6.819-6.7 6.819-12.634-0.001-0.167-0.008-0.33-0.023-0.489 1.006-1.115 1.676-2.429 1.996-3.781 0.127-0.537-0.206-1.076-0.743-1.203-0.29-0.069-0.58-0.003-0.807 0.156z"></path>
</symbol>
<symbol id="icon-devices" viewBox="0 0 24 24">
<path d="M21.984 17.016v-7.031h-3.984v7.031h3.984zM23.016 8.016q0.422 0 0.703 0.281t0.281 0.703v9.984q0 0.422-0.281 0.727t-0.703 0.305h-6q-0.422 0-0.727-0.305t-0.305-0.727v-9.984q0-0.422 0.305-0.703t0.727-0.281h6zM3.984 6v11.016h10.031v3h-14.016v-3h2.016v-11.016q0-0.797 0.586-1.406t1.383-0.609h18v2.016h-18z"></path>
</symbol>
<symbol id="icon-code" viewBox="0 0 24 24">
<path d="M14.578 16.594l4.641-4.594-4.641-4.594 1.406-1.406 6 6-6 6zM9.422 16.594l-1.406 1.406-6-6 6-6 1.406 1.406-4.641 4.594z"></path>
</symbol>
<symbol id="icon-design" viewBox="0 0 24 24">
<path d="M16.219 11.531l1.594-1.594-3.75-3.75-1.594 1.594-4.125-4.172q-0.563-0.563-1.406-0.563t-1.406 0.563l-1.922 1.922q-0.563 0.563-0.563 1.406t0.563 1.406l4.125 4.125-4.734 4.781v3.75h3.75l4.781-4.781 4.125 4.172q0.469 0.469 1.008 0.539t1.031-0.094 0.773-0.445l1.922-1.922q0.563-0.563 0.563-1.406t-0.563-1.406zM9.188 11.063l-4.125-4.125 1.875-1.875 1.266 1.266-1.172 1.172 1.406 1.406 1.172-1.172 1.453 1.453zM17.063 18.938l-4.125-4.125 1.875-1.875 1.453 1.453-1.172 1.172 1.406 1.406 1.172-1.172 1.266 1.266zM20.719 7.031q0.281-0.281 0.281-0.703t-0.281-0.703l-2.344-2.344q-0.375-0.328-0.797-0.258t-0.609 0.258l-1.828 1.828 3.75 3.75z"></path>
</symbol>
</defs>
</svg>
