<svg id="Layer_1" data-name="Layer 1" xmlns="http://www.w3.org/2000/svg" viewBox="0 0 5000 2862.98"><defs><style>.cls-1{fill:#2b2b2b;}.cls-2{fill:#6be4d3;}.cls-3{fill:#6d6d6d;}</style></defs><path class="cls-1" d="M2749.57,1131.36l-500.43,456.77V500.43C2249.14,224.05,2473.19,0,2749.57,0V1131.36Z" transform="translate(0 0)"/><path class="cls-2" d="M2250.43,1131.36,1750,1588.13V500.43C1750,224.05,1974.05,0,2250.43,0V1131.36Z" transform="translate(0 0)"/><path class="cls-3" d="M3250,1131.36l-500.43,456.77V500.43C2749.57,224.05,2973.62,0,3250,0V1131.36Z" transform="translate(0 0)"/><path class="cls-2" d="M3243.34,1332.38v262.54H2980.8Z" transform="translate(0 0)"/><path id="id-6izo4zJp15" class="cls-2" d="M1485.46,2612.69l32,138.53,26.22-138.53h40l-43.2,194.65H1500l-31.69-130.18-31.69,130.18h-40.39l-43.2-194.65h40l26.36,138.25,32.1-138.25ZM1670.63,2810h0q-31.83,0-51.82-19.51t-20-52h0v-3.77q0-21.76,8.42-38.94a62,62,0,0,1,23.89-26.49q15.4-9.24,35.19-9.24h0q29.7,0,46.75,18.69t17,53h0v15.81H1638q1.92,14.16,11.29,22.72t23.89,8.56h0q22.32,0,34.92-16.16h0l19,21.22a57.69,57.69,0,0,1-23.55,19.16A76.63,76.63,0,0,1,1670.63,2810Zm-4.45-118.68h0q-11.43,0-18.62,7.73t-9.17,22.18h53.74v-3.08q-.29-12.79-6.92-19.85T1666.18,2691.33Zm221.72,42.91v2.12q0,34.77-14.85,54.21T1831.57,2810h0q-23.49,0-37.52-18.07h0l-1.78,15.4H1757.5V2602h38.68v73.65q13.35-15.61,35.18-15.61h0q26.43,0,41.48,19.44t15.06,54.75Zm-38.67-.68h0q0-21.9-6.92-32t-20.74-10.06h0q-18.48,0-25.39,15.05h0v57.08q7,15.27,25.67,15.27h0q18.69,0,24.57-18.48h0Q1849.23,2751.63,1849.23,2733.56Zm204.4,73.78h-60.24V2612.69h59.9q25.66,0,45.86,11.57a80.59,80.59,0,0,1,31.63,32.92q11.37,21.29,11.36,48.45h0v9q0,27.11-11.15,48.25a80.08,80.08,0,0,1-31.49,32.72q-20.34,11.63-45.87,11.77Zm-.34-162.14h-19.85v129.9h19.44q23.48,0,35.94-15.33t12.73-44h0V2705.5q0-29.72-12.32-45t-35.94-15.26ZM2240.85,2810h0q-31.83,0-51.82-19.51t-20-52h0v-3.77q0-21.76,8.42-38.94a61.83,61.83,0,0,1,23.89-26.49q15.39-9.24,35.18-9.24h0q29.72,0,46.76,18.69t17,53h0v15.81H2208.2q1.85,14.16,11.3,22.72t23.89,8.56h0q22.31,0,34.91-16.16h0l19,21.22a57.69,57.69,0,0,1-23.55,19.16A76.88,76.88,0,0,1,2240.85,2810Zm-4.45-118.68h0q-11.49,0-18.62,7.73t-9.17,22.18h53.74v-3.08q-.27-12.79-6.92-19.85T2236.4,2691.33Zm116.86-28.61,26.9,97.46,26.83-97.46h40.39l-48.81,144.62h-36.89l-48.81-144.62ZM2534.73,2810h0q-31.83,0-51.82-19.51t-20-52h0v-3.77q0-21.76,8.42-38.94a62,62,0,0,1,23.82-26.49q15.47-9.24,35.25-9.24h0q29.72,0,46.76,18.69t17,53h0v15.81h-92.14q1.86,14.16,11.3,22.72t23.89,8.56h0q22.32,0,34.84-16.16h0l19,21.22a57.59,57.59,0,0,1-23.54,19.16A77,77,0,0,1,2534.73,2810Zm-4.45-118.68h0q-11.51,0-18.62,7.73t-9.17,22.18h53.73v-3.08q-.27-12.79-7-19.85T2530.28,2691.33ZM2662.39,2602v205.33h-38.81V2602Zm31.29,133.4v-1.71q0-21.57,8.28-38.4a60.83,60.83,0,0,1,23.82-26.08q15.61-9.16,36.21-9.17h0q29.24,0,47.79,17.87t20.67,48.66h0l.27,9.92q0,33.27-18.62,53.39T2762.27,2810q-31.29,0-50-20.06t-18.62-54.54Zm38.61,1.09h0q0,20.61,7.73,31.48t22.25,10.89h0q14,0,21.9-10.75t7.88-34.42h0q0-20.2-7.88-31.28T2762,2691.33h0q-14.16,0-22,11T2732.29,2736.5Zm257.93-2.12v2q0,33.41-15.2,53.53T2934,2810h0q-21.9,0-35.39-15.27h0V2863H2860V2662.72h35.87l1.3,14.17q14-16.84,36.63-16.84h0q26.76,0,41.62,19.78t14.85,54.55Zm-38.68-.82h0q0-20.19-7.12-31.14t-20.81-11h0q-18.2,0-25,13.89h0v59.2q7,14.31,25.26,14.31h0Q2951.55,2778.87,2951.54,2733.56Zm68.05-70.84h36.28l1.16,16.15q15.41-18.81,41.62-18.82h0q27.93,0,38.34,22h0q15.26-22,43.46-22h0q23.55,0,35.05,13.69t11.5,41.2h0v92.4h-38.81v-92.26q0-12.26-4.79-17.93t-17-5.68h0q-17.39,0-24.09,16.56h0l.13,99.31h-38.61v-92.12q0-12.53-5-18.14t-16.84-5.61h0q-16.44,0-23.76,13.62h0v102.25h-38.67ZM3328.73,2810h0q-31.83,0-51.82-19.51t-20-52h0v-3.77q0-21.76,8.42-38.94a61.83,61.83,0,0,1,23.89-26.49q15.41-9.24,35.18-9.24h0q29.72,0,46.76,18.69t17,53h0v15.81h-92.14q1.92,14.16,11.3,22.72t23.89,8.56h0q22.32,0,34.91-16.16h0l19,21.22a57.56,57.56,0,0,1-23.55,19.16A76.87,76.87,0,0,1,3328.73,2810Zm-4.45-118.68h0q-11.51,0-18.62,7.73t-9.18,22.18h53.74v-3.08q-.27-12.79-6.91-19.85T3324.28,2691.33Zm90.49-28.61h36.42l1.16,16.7q15.54-19.36,41.62-19.37h0q23,0,34.23,13.49t11.5,40.38h0v93.42H3501v-92.53q0-12.26-5.33-17.8t-17.8-5.54h0q-16.29,0-24.44,13.89h0v102h-38.68Zm167.3-35.59h38.61v35.59h24.78v28.34h-24.78v72.13q0,8.08,3.08,11.5t11.78,3.49h0a63.88,63.88,0,0,0,11.36-.89h0v29.23a79.53,79.53,0,0,1-23.41,3.49h0q-40.66,0-41.42-41.07h0v-77.88h-21.15v-28.34h21.15Z" transform="translate(0 0)"/><path id="id-D6z1nYkh16" class="cls-1" d="M395.84,2286.42l50.9-360.88H554.63l-93.45,483.21H331.26l-53.95-316.07-53.94,316.07H93.45L0,1925.54H112.44L158,2286.42l63.82-360.88H332Zm218.05,122.33V1925.54H721.77v483.21Zm301.62-483.21V2329h139v79.78H807.63V1925.54Zm297.07,0V2329h139v79.78H1104.7V1925.54ZM1404,2408.75V1925.54h107.89v483.21Zm302.39-205.9V2329h155v79.78H1597.78V1925.54h257.56v79.77H1706.43v117.76h126.88v79.78Zm737.73,83.57,50.9-360.88H2603l-93.45,483.21H2379.58l-53.95-316.07-53.94,316.07H2141.77l-93.45-483.21h112.45l45.58,360.88,63.82-360.88h110.17Zm420.15-156.51V1925.54h107.12v483.21H2864.31V2209.69h-97.25v199.06H2659.93V1925.54h107.13v204.37Zm193,278.84V1925.54h107.88v483.21Zm163.35-483.21h285.67v79.77h-88.9v403.44H3308.77V2005.31h-88.13Zm598.69,0v79.77H3668.14v133H3795v75.22H3668.14v195.26H3559.49V1925.54Zm60.78,483.21V1925.54H3988v483.21Zm302.38-205.9V2329h155v79.78H4073.85V1925.54h257.56v79.77H4182.49v117.76h126.89v79.78Zm325.18-277.31V2329h139v79.78H4399.79V1925.54Zm194.5,483.21V1925.54h201.34q96.49,0,96.49,83.57h0v315.3q0,84.33-96.49,84.34H4702.17Zm189.18-93.46h0V2019q0-19-20.51-19h-60v334.3h60Q4891.36,2334.29,4891.35,2315.29Z" transform="translate(0 0)"/></svg>